<?xml version="1.0" encoding="UTF-8" standalone="no"?>
<!-- Generator: Adobe Illustrator 19.0.0, SVG Export Plug-In . SVG Version: 6.00 Build 0)  -->

<svg
   xmlns:dc="http://purl.org/dc/elements/1.1/"
   xmlns:cc="http://creativecommons.org/ns#"
   xmlns:rdf="http://www.w3.org/1999/02/22-rdf-syntax-ns#"
   xmlns:svg="http://www.w3.org/2000/svg"
   xmlns="http://www.w3.org/2000/svg"
   xmlns:sodipodi="http://sodipodi.sourceforge.net/DTD/sodipodi-0.dtd"
   xmlns:inkscape="http://www.inkscape.org/namespaces/inkscape"
   version="1.1"
   x="0px"
   y="0px"
   viewBox="0 0 4096 4096"
   xml:space="preserve"
   id="svg83"
   sodipodi:docname="wordpress-logo.svg"
   width="4096"
   height="4096"
   inkscape:export-filename="G:\Users\suitedoalex\sites\svg\wordpress-logo-0.png"
   inkscape:export-xdpi="96"
   inkscape:export-ydpi="96"
   inkscape:version="0.92.2 (5c3e80d, 2017-08-06)"><metadata
     id="metadata89"><rdf:RDF><cc:Work
         rdf:about=""><dc:format>image/svg+xml</dc:format><dc:type
           rdf:resource="http://purl.org/dc/dcmitype/StillImage" /><dc:title></dc:title></cc:Work></rdf:RDF></metadata><defs
     id="defs87" /><sodipodi:namedview
     pagecolor="#ffffff"
     bordercolor="#666666"
     borderopacity="1"
     objecttolerance="10"
     gridtolerance="10"
     guidetolerance="10"
     inkscape:pageopacity="0"
     inkscape:pageshadow="2"
     inkscape:window-width="1600"
     inkscape:window-height="837"
     id="namedview85"
     showgrid="false"
     inkscape:zoom="0.1585"
     inkscape:cx="1287.6491"
     inkscape:cy="2636.133"
     inkscape:window-x="-8"
     inkscape:window-y="-8"
     inkscape:window-maximized="1"
     inkscape:current-layer="svg83" /><style
     type="text/css"
     id="style2">
	.st0{opacity:0;fill:#FFFFFF;}
	.st1{fill:#32373C;}
</style><g
     id="Legend___x28_Ignore_content_x29_"
     transform="translate(0,3636)"><text
       transform="translate(-2400,-1426.7734)"
       style="font-size:24px;font-family:OpenSans-Semibold;fill:#ffffff"
       id="text4">WordPress Logotype - Standard</text>
<text
       transform="translate(-2400,-346.7734)"
       style="font-size:24px;font-family:OpenSans-Semibold;fill:#ffffff"
       id="text6">WordPress Logotype - Alternative</text>
<text
       transform="translate(0,-1426.7734)"
       style="font-size:24px;font-family:OpenSans-Semibold;fill:#ffffff"
       id="text8">WordPress W Mark</text>
<text
       transform="translate(0,-26.7738)"
       style="font-size:24px;font-family:OpenSans-Semibold;fill:#ffffff"
       id="text10">WordPress Word Mark</text>
</g><g
     id="Word_Mark"
     transform="translate(224.46548,1615.2153)"
     inkscape:export-filename="G:\Users\suitedoalex\sites\wordpress-logo-11.png"
     inkscape:export-xdpi="19.199999"
     inkscape:export-ydpi="19.199999"><rect
       id="Safety_Area_3_"
       class="st0"
       width="2000"
       height="460"
       x="0"
       y="0"
       style="opacity:0;fill:#ffffff" /><g
       id="Wordmark_3_"><path
         class="st1"
         d="m 914.2,167.1 h -91.4 v 9.7 c 28.6,0 33.2,6.1 33.2,42.4 v 65.4 c 0,36.3 -4.6,42.9 -33.2,42.9 -22,-3.1 -36.8,-14.8 -57.2,-37.3 l -23.5,-25.5 c 31.7,-5.6 48.5,-25.5 48.5,-48 0,-28.1 -24,-49.5 -69,-49.5 h -89.9 v 9.7 c 28.6,0 33.2,6.1 33.2,42.4 v 65.4 c 0,36.3 -4.6,42.9 -33.2,42.9 v 9.7 h 101.7 v -9.7 c -28.6,0 -33.2,-6.6 -33.2,-42.9 v -18.4 h 8.7 l 56.7,71 h 148.7 c 73.1,0 104.7,-38.8 104.7,-85.3 -0.1,-46.5 -31.7,-84.9 -104.8,-84.9 z m -214,83.3 v -67.9 h 20.9 c 23,0 33.2,15.8 33.2,34.2 0,17.9 -10.2,33.7 -33.2,33.7 z m 215.5,71 h -3.6 c -18.4,0 -20.9,-4.6 -20.9,-28.1 V 182.5 c 0,0 22.5,0 24.5,0 53.1,0 62.8,38.8 62.8,69 0.1,31.1 -9.6,69.9 -62.8,69.9 z"
         id="path14"
         inkscape:connector-curvature="0"
         style="fill:#32373c" /><path
         class="st1"
         d="M 347.2,269.3 382.4,165.1 C 392.6,135 388,126.3 355.3,126.3 v -10.2 h 96 v 10.2 c -32.2,0 -39.8,7.7 -52.6,45 L 340.5,346 h -6.6 L 281.8,186 228.7,345.9 H 222 L 165.3,171.2 c -12.3,-37.3 -20.4,-45 -50.1,-45 V 116 h 113.4 v 10.2 c -30.1,0 -38.3,7.1 -27.6,38.8 l 34.2,104.2 51.6,-153.3 h 9.7 z"
         id="path16"
         inkscape:connector-curvature="0"
         style="fill:#32373c" /><path
         class="st1"
         d="m 520.9,343.9 c -56.2,0 -102.2,-41.4 -102.2,-92 0,-50.1 46,-91.4 102.2,-91.4 56.2,0 102.2,41.4 102.2,91.4 -0.1,50.6 -46,92 -102.2,92 z m 0,-167.6 c -47,0 -63.3,42.4 -63.3,75.6 0,33.7 16.4,75.6 63.3,75.6 47.5,0 63.9,-41.9 63.9,-75.6 -0.1,-33.2 -16.4,-75.6 -63.9,-75.6 z"
         id="path18"
         inkscape:connector-curvature="0"
         style="fill:#32373c" /><path
         class="st1"
         d="m 1145.1,327 v 10.2 h -117 V 327 c 34.2,0 40.4,-8.7 40.4,-59.8 v -81.7 c 0,-51.1 -6.1,-59.3 -40.4,-59.3 V 116 h 105.7 c 52.6,0 81.7,27.1 81.7,63.4 0,35.2 -29.1,62.8 -81.7,62.8 h -29.1 v 25 c 0.1,51.2 6.2,59.8 40.4,59.8 z m -11.2,-192.6 h -29.1 v 88.9 h 29.1 c 28.6,0 41.9,-19.9 41.9,-43.9 0,-24.5 -13.3,-45 -41.9,-45 z"
         id="path20"
         inkscape:connector-curvature="0"
         style="fill:#32373c" /><path
         class="st1"
         d="m 1566.5,289.2 -2.6,9.2 c -4.6,16.9 -10.2,23 -46.5,23 h -7.2 c -26.6,0 -31.2,-6.1 -31.2,-42.4 v -23.5 c 39.8,0 42.9,3.6 42.9,30.1 h 9.7 v -76.1 h -9.7 c 0,26.6 -3.1,30.1 -42.9,30.1 v -57.2 h 28.1 c 36.3,0 41.9,6.1 46.5,23 l 2.6,9.7 h 8.2 l -3.6,-48 h -150.2 v 9.7 c 28.6,0 33.2,6.1 33.2,42.4 v 65.4 c 0,33.2 -3.9,41.5 -26.5,42.7 -21.4,-3.3 -36.2,-15 -56.3,-37.1 l -23.5,-25.5 c 31.7,-5.6 48.5,-25.5 48.5,-48 0,-28.1 -24,-49.5 -69,-49.5 h -89.9 v 9.7 c 28.6,0 33.2,6.1 33.2,42.4 v 65.4 c 0,36.3 -4.6,42.9 -33.2,42.9 v 9.7 H 1329 v -9.7 c -28.6,0 -33.2,-6.6 -33.2,-42.9 v -18.4 h 8.7 l 56.7,71 h 210 l 3.1,-48 h -7.8 z m -270.7,-38.8 v -67.9 h 20.9 c 23,0 33.2,15.8 33.2,34.2 0,17.9 -10.2,33.7 -33.2,33.7 z"
         id="path22"
         inkscape:connector-curvature="0"
         style="fill:#32373c" /><path
         class="st1"
         d="m 1670.2,343.9 c -20.4,0 -38.3,-10.7 -46,-17.4 -2.6,2.6 -7.1,10.2 -8.2,17.4 h -9.7 v -70.5 h 10.2 c 4.1,33.7 27.6,53.6 57.7,53.6 16.3,0 29.6,-9.2 29.6,-24.5 0,-13.3 -11.8,-23.5 -32.7,-33.2 L 1642,255.5 c -20.4,-9.7 -35.8,-26.6 -35.8,-49 0,-24.5 23,-45.5 54.7,-45.5 16.9,0 31.2,6.1 39.8,13.3 2.6,-2 5.1,-7.7 6.6,-13.8 h 9.7 v 60.3 h -10.7 c -3.6,-24 -16.9,-43.9 -43.9,-43.9 -14.3,0 -27.6,8.2 -27.6,20.9 0,13.3 10.7,20.4 35.3,31.7 l 28.1,13.8 c 24.5,11.7 34.2,30.7 34.2,46 0.2,32.1 -27.9,54.6 -62.2,54.6 z"
         id="path24"
         inkscape:connector-curvature="0"
         style="fill:#32373c" /><path
         class="st1"
         d="m 1824.7,343.9 c -20.4,0 -38.3,-10.7 -46,-17.4 -2.6,2.6 -7.1,10.2 -8.2,17.4 h -9.7 v -70.5 h 10.2 c 4.1,33.7 27.6,53.6 57.7,53.6 16.3,0 29.6,-9.2 29.6,-24.5 0,-13.3 -11.8,-23.5 -32.7,-33.2 l -29.1,-13.8 c -20.4,-9.7 -35.8,-26.6 -35.8,-49 0,-24.5 23,-45.5 54.7,-45.5 16.9,0 31.2,6.1 39.8,13.3 2.6,-2 5.1,-7.7 6.6,-13.8 h 9.7 v 60.3 H 1861 c -3.6,-24 -16.9,-43.9 -43.9,-43.9 -14.3,0 -27.6,8.2 -27.6,20.9 0,13.3 10.7,20.4 35.3,31.7 l 28.1,13.8 c 24.5,11.7 34.2,30.7 34.2,46 -0.1,32.1 -28.2,54.6 -62.4,54.6 z"
         id="path26"
         inkscape:connector-curvature="0"
         style="fill:#32373c" /></g></g><g
     id="W_Mark_3_"
     transform="translate(351.26384,4153.4402)"
     inkscape:export-filename="G:\Users\suitedoalex\sites\wordpress-logo-10.png"
     inkscape:export-xdpi="9.6000004"
     inkscape:export-ydpi="9.6000004"><rect
       id="Safety_Area_2_"
       y="-1400"
       class="st0"
       width="1000"
       height="1000"
       x="0"
       style="opacity:0;fill:#ffffff" /><g
       id="W_Mark_2_"><path
         class="st1"
         d="m 500,-1213.3 c 42.3,0 83.3,8.3 122,24.6 18.6,7.9 36.5,17.6 53.2,28.9 16.6,11.2 32.2,24.1 46.4,38.3 14.2,14.2 27.1,29.8 38.3,46.4 11.3,16.7 21,34.7 28.9,53.2 16.3,38.6 24.6,79.6 24.6,122 0,42.4 -8.3,83.3 -24.6,122 -7.9,18.6 -17.6,36.5 -28.9,53.2 -11.2,16.6 -24.1,32.2 -38.3,46.4 -14.2,14.2 -29.8,27.1 -46.4,38.3 -16.7,11.3 -34.7,21 -53.2,28.9 -38.6,16.3 -79.6,24.6 -122,24.6 -42.3,0 -83.3,-8.3 -122,-24.6 -18.6,-7.9 -36.5,-17.6 -53.2,-28.9 -16.6,-11.2 -32.2,-24.1 -46.4,-38.3 -14.2,-14.2 -27.1,-29.8 -38.3,-46.4 -11.3,-16.7 -21,-34.7 -28.9,-53.2 -16.3,-38.6 -24.6,-79.6 -24.6,-122 0,-42.4 8.3,-83.3 24.6,-122 7.9,-18.6 17.6,-36.5 28.9,-53.2 11.2,-16.6 24.1,-32.2 38.3,-46.4 14.2,-14.2 29.8,-27.1 46.4,-38.3 16.7,-11.3 34.7,-21 53.2,-28.9 38.7,-16.4 79.7,-24.6 122,-24.6 m 0,-20 c -184.1,0 -333.3,149.2 -333.3,333.3 0,184.1 149.2,333.3 333.3,333.3 184.1,0 333.3,-149.2 333.3,-333.3 0,-184.1 -149.2,-333.3 -333.3,-333.3 z"
         id="path31"
         inkscape:connector-curvature="0"
         style="fill:#32373c" /><path
         class="st1"
         d="m 222.2,-900 c 0,109.9 63.9,205 156.6,250 l -132.5,-363 c -15.4,34.5 -24.1,72.7 -24.1,113 z m 465.3,-14 c 0,-34.3 -12.3,-58.1 -22.9,-76.6 -14.1,-22.9 -27.3,-42.3 -27.3,-65.1 0,-25.5 19.4,-49.3 46.6,-49.3 1.2,0 2.4,0.1 3.6,0.2 -49.4,-45.3 -115.3,-72.9 -187.6,-72.9 -97,0 -182.4,49.8 -232.1,125.2 6.5,0.2 12.7,0.3 17.9,0.3 29,0 74,-3.5 74,-3.5 15,-0.9 16.7,21.1 1.8,22.9 0,0 -15.1,1.8 -31.8,2.6 l 101.3,300.8 60.8,-182.3 -43.3,-118.6 c -15,-0.9 -29.1,-2.6 -29.1,-2.6 -15,-0.9 -13.2,-23.8 1.8,-22.9 0,0 45.9,3.5 73.2,3.5 29,0 74,-3.5 74,-3.5 15,-0.9 16.7,21.1 1.8,22.9 0,0 -15.1,1.8 -31.8,2.6 l 100.4,298.6 28.7,-90.8 c 12.6,-39.6 20,-67.8 20,-91.5 z m -182.6,38.3 -83.4,242.2 c 24.9,7.3 51.2,11.3 78.5,11.3 32.3,0 63.4,-5.6 92.2,-15.7 -0.7,-1.2 -1.4,-2.5 -2,-3.8 z m 238.9,-157.6 c 1.2,8.8 1.9,18.3 1.9,28.6 0,28.2 -5.3,59.9 -21.1,99.5 l -84.8,245.3 c 82.6,-48.1 138.1,-137.6 138.1,-240.1 -0.1,-48.3 -12.5,-93.7 -34.1,-133.3 z"
         id="path33"
         inkscape:connector-curvature="0"
         style="fill:#32373c" /></g></g><g
     id="Alternative"
     transform="translate(4496.9314,3207.7208)"
     inkscape:export-filename="G:\Users\suitedoalex\sites\wordpress-logo-9.png"
     inkscape:export-xdpi="19.199997"
     inkscape:export-ydpi="19.199997"><rect
       id="Safety_Area_1_"
       x="-2400"
       y="-320"
       class="st0"
       width="2000"
       height="1080"
       style="opacity:0;fill:#ffffff" /><g
       id="Logotype_1_"><g
         id="Wordmark_1_"><path
           class="st1"
           d="m -1477.9,395.4 h -82 v 8.7 c 25.6,0 29.8,5.5 29.8,38 v 58.6 c 0,32.5 -4.1,38.5 -29.8,38.5 -19.7,-2.7 -33,-13.3 -51.3,-33.4 l -21.1,-22.9 c 28.4,-5 43.5,-22.9 43.5,-43 0,-25.2 -21.5,-44.4 -61.8,-44.4 h -80.6 v 8.7 c 25.6,0 29.8,5.5 29.8,38 v 58.6 c 0,32.5 -4.1,38.5 -29.8,38.5 v 8.7 h 91.1 v -8.7 c -25.6,0 -29.8,-6 -29.8,-38.5 v -16.5 h 7.8 l 50.8,63.6 h 133.2 c 65.5,0 93.9,-34.8 93.9,-76.5 0.1,-41.7 -28.2,-76 -93.7,-76 z m -191.8,74.6 v -60.9 h 18.8 c 20.6,0 29.8,14.2 29.8,30.7 0,16 -9.2,30.2 -29.8,30.2 z m 193.2,63.7 h -3.2 c -16.5,0 -18.8,-4.1 -18.8,-25.2 v -99.4 c 0,0 20.1,0 22,0 47.6,0 56.3,34.8 56.3,61.8 0,28 -8.7,62.8 -56.3,62.8 z"
           id="path38"
           inkscape:connector-curvature="0"
           style="fill:#32373c" /><path
           class="st1"
           d="m -1986.1,487 31.6,-93.4 c 9.2,-27 5,-34.8 -24.3,-34.8 v -9.2 h 86.1 v 9.2 c -28.8,0 -35.7,6.9 -47.2,40.3 l -52.2,156.6 h -5.9 l -46.7,-143.3 -47.6,143.3 h -6 l -50.8,-156.6 c -11,-33.4 -18.3,-40.3 -44.9,-40.3 v -9.2 h 101.6 v 9.2 c -27,0 -34.3,6.4 -24.7,34.8 l 30.7,93.4 46.2,-137.4 h 8.7 z"
           id="path40"
           inkscape:connector-curvature="0"
           style="fill:#32373c" /><path
           class="st1"
           d="m -1830.4,553.8 c -50.4,0 -91.6,-37.1 -91.6,-82.4 0,-44.9 41.2,-82 91.6,-82 50.4,0 91.6,37.1 91.6,82 -0.1,45.3 -41.3,82.4 -91.6,82.4 z m 0,-150.2 c -42.1,0 -56.8,38 -56.8,67.8 0,30.2 14.7,67.8 56.8,67.8 42.6,0 57.2,-37.5 57.2,-67.8 0,-29.8 -14.7,-67.8 -57.2,-67.8 z"
           id="path42"
           inkscape:connector-curvature="0"
           style="fill:#32373c" /><path
           class="st1"
           d="m -1271,538.7 v 9.2 h -104.8 v -9.2 c 30.7,0 36.2,-7.8 36.2,-53.6 v -73.2 c 0,-45.8 -5.5,-53.1 -36.2,-53.1 v -9.2 h 94.8 c 47.2,0 73.3,24.3 73.3,56.8 0,31.6 -26.1,56.3 -73.3,56.3 h -26.1 v 22.4 c 0,45.8 5.4,53.6 36.1,53.6 z m -10.1,-172.6 h -26.1 v 79.7 h 26.1 c 25.6,0 37.5,-17.9 37.5,-39.4 0.1,-22 -11.8,-40.3 -37.5,-40.3 z"
           id="path44"
           inkscape:connector-curvature="0"
           style="fill:#32373c" /><path
           class="st1"
           d="m -893.3,504.8 -2.3,8.2 c -4.1,15.1 -9.2,20.6 -41.7,20.6 h -6.4 c -23.8,0 -27.9,-5.5 -27.9,-38 v -21.1 c 35.7,0 38.5,3.2 38.5,27 h 8.7 v -68.2 h -8.7 c 0,23.8 -2.7,27 -38.5,27 V 409 h 25.2 c 32.5,0 37.5,5.5 41.7,20.6 l 2.3,8.7 h 7.3 l -3.2,-43 h -134.6 v 8.7 c 25.6,0 29.8,5.5 29.8,38 v 58.6 c 0,29.7 -3.5,37.2 -23.7,38.3 -19.2,-2.9 -32.4,-13.4 -50.4,-33.3 l -21.1,-22.9 c 28.4,-5 43.5,-22.9 43.5,-43 0,-25.2 -21.5,-44.4 -61.8,-44.4 h -80.6 v 8.7 c 25.6,0 29.8,5.5 29.8,38 v 58.6 c 0,32.5 -4.1,38.5 -29.8,38.5 v 8.7 h 91.1 v -8.7 c -25.6,0 -29.8,-6 -29.8,-38.5 v -16.5 h 7.8 l 50.8,63.6 h 188.2 l 2.7,-43 h -6.9 z M -1135.9,470 v -60.9 h 18.8 c 20.6,0 29.8,14.2 29.8,30.7 0,16 -9.2,30.2 -29.8,30.2 z"
           id="path46"
           inkscape:connector-curvature="0"
           style="fill:#32373c" /><path
           class="st1"
           d="m -800.3,553.8 c -18.3,0 -34.3,-9.6 -41.2,-15.6 -2.3,2.3 -6.4,9.2 -7.3,15.6 h -8.7 v -63.2 h 9.2 c 3.7,30.2 24.7,48.1 51.7,48.1 14.6,0 26.6,-8.2 26.6,-22 0,-11.9 -10.5,-21.1 -29.3,-29.8 l -26.1,-12.4 c -18.3,-8.7 -32,-23.8 -32,-44 0,-22 20.6,-40.7 49,-40.7 15.1,0 27.9,5.5 35.7,11.9 2.3,-1.8 4.6,-6.9 6,-12.4 h 8.7 v 54 h -9.6 c -3.2,-21.5 -15.1,-39.4 -39.4,-39.4 -12.8,0 -24.7,7.3 -24.7,18.8 0,11.9 9.6,18.3 31.6,28.4 l 25.2,12.4 c 22,10.5 30.7,27.5 30.7,41.2 -0.3,29 -25.5,49.1 -56.1,49.1 z"
           id="path48"
           inkscape:connector-curvature="0"
           style="fill:#32373c" /><path
           class="st1"
           d="m -661.9,553.8 c -18.3,0 -34.3,-9.6 -41.2,-15.6 -2.3,2.3 -6.4,9.2 -7.3,15.6 h -8.7 v -63.2 h 9.2 c 3.7,30.2 24.7,48.1 51.7,48.1 14.6,0 26.6,-8.2 26.6,-22 0,-11.9 -10.5,-21.1 -29.3,-29.8 L -687,474.5 c -18.3,-8.7 -32,-23.8 -32,-44 0,-22 20.6,-40.7 49,-40.7 15.1,0 27.9,5.5 35.7,11.9 2.3,-1.8 4.6,-6.9 5.9,-12.4 h 8.7 v 54 h -9.6 c -3.2,-21.5 -15.1,-39.4 -39.4,-39.4 -12.8,0 -24.7,7.3 -24.7,18.8 0,11.9 9.6,18.3 31.6,28.4 l 25.2,12.4 c 22,10.5 30.7,27.5 30.7,41.2 -0.1,29 -25.3,49.1 -56,49.1 z"
           id="path50"
           inkscape:connector-curvature="0"
           style="fill:#32373c" /></g><g
         id="W_Mark_1_"><path
           class="st1"
           d="m -1400,-101.6 c 26.2,0 51.5,5.1 75.4,15.2 11.5,4.9 22.5,10.9 32.9,17.9 10.3,6.9 19.9,14.9 28.7,23.7 8.8,8.8 16.7,18.4 23.7,28.7 7,10.4 13,21.4 17.9,32.9 10.1,23.9 15.2,49.2 15.2,75.4 0,26.2 -5.1,51.5 -15.2,75.4 -4.9,11.5 -10.9,22.5 -17.9,32.9 -6.9,10.3 -14.9,19.9 -23.7,28.7 -8.8,8.8 -18.4,16.7 -28.7,23.7 -10.4,7 -21.4,13 -32.9,17.9 -23.9,10.1 -49.2,15.2 -75.4,15.2 -26.2,0 -51.5,-5.1 -75.4,-15.2 -11.5,-4.9 -22.5,-10.9 -32.9,-17.9 -10.3,-6.9 -19.9,-14.9 -28.7,-23.7 -8.8,-8.8 -16.7,-18.4 -23.7,-28.7 -7,-10.4 -13,-21.4 -17.9,-32.9 -10.1,-23.9 -15.2,-49.2 -15.2,-75.4 0,-26.2 5.1,-51.5 15.2,-75.4 4.9,-11.5 10.9,-22.5 17.9,-32.9 6.9,-10.3 14.9,-19.9 23.7,-28.7 8.8,-8.8 18.4,-16.7 28.7,-23.7 10.4,-7 21.4,-13 32.9,-17.9 23.9,-10.1 49.2,-15.2 75.4,-15.2 m 0,-12.4 c -113.8,0 -206,92.2 -206,206 0,113.8 92.2,206 206,206 113.8,0 206,-92.2 206,-206 0,-113.7 -92.2,-206 -206,-206 z"
           id="path53"
           inkscape:connector-curvature="0"
           style="fill:#32373c" /><path
           class="st1"
           d="m -1571.7,92.1 c 0,68 39.5,126.7 96.8,154.5 l -81.9,-224.4 c -9.6,21.3 -14.9,45 -14.9,69.9 z m 287.6,-8.7 c 0,-21.2 -7.6,-35.9 -14.2,-47.3 -8.7,-14.1 -16.9,-26.1 -16.9,-40.3 0,-15.8 12,-30.5 28.8,-30.5 0.8,0 1.5,0.1 2.2,0.1 -30.5,-28 -71.2,-45.1 -115.9,-45.1 -60,0 -112.8,30.8 -143.5,77.4 4,0.1 7.8,0.2 11.1,0.2 18,0 45.8,-2.2 45.8,-2.2 9.3,-0.5 10.3,13.1 1.1,14.1 0,0 -9.3,1.1 -19.6,1.6 l 62.5,186 37.6,-112.7 -26.7,-73.3 c -9.3,-0.5 -18,-1.6 -18,-1.6 -9.3,-0.5 -8.2,-14.7 1.1,-14.1 0,0 28.3,2.2 45.2,2.2 18,0 45.8,-2.2 45.8,-2.2 9.3,-0.5 10.3,13.1 1.1,14.1 0,0 -9.3,1.1 -19.6,1.6 l 62,184.6 17.7,-56.1 c 7.8,-24.4 12.4,-41.8 12.4,-56.5 z m -112.9,23.7 -51.5,149.7 c 15.4,4.5 31.7,7 48.5,7 20,0 39.2,-3.5 57,-9.7 -0.5,-0.7 -0.9,-1.5 -1.2,-2.4 z m 147.7,-97.4 c 0.7,5.5 1.2,11.3 1.2,17.7 0,17.4 -3.3,37 -13.1,61.5 l -52.4,151.6 c 51,-29.8 85.4,-85.1 85.4,-148.4 -0.1,-29.9 -7.7,-58 -21.1,-82.4 z"
           id="path55"
           inkscape:connector-curvature="0"
           style="fill:#32373c" /></g></g></g><g
     id="Standard"
     transform="translate(4234.4573,1911.098)"
     inkscape:export-filename="G:\Users\suitedoalex\sites\wordpress-logo-12.png"
     inkscape:export-xdpi="19.200001"
     inkscape:export-ydpi="19.200001"><rect
       id="Safety_Area"
       x="-2400"
       y="-1400"
       class="st0"
       width="2000"
       height="680"
       style="opacity:0;fill:#ffffff" /><g
       id="Logotype"><g
         id="Wordmark"><path
           class="st1"
           d="m -1285.5,-1104.7 h -67.4 v 7.2 c 21.1,0 24.5,4.5 24.5,31.3 v 48.2 c 0,26.7 -3.4,31.6 -24.5,31.6 -16.2,-2.3 -27.1,-10.9 -42.2,-27.5 l -17.3,-18.8 c 23.3,-4.1 35.8,-18.8 35.8,-35.4 0,-20.7 -17.7,-36.5 -50.8,-36.5 h -66.3 v 7.2 c 21.1,0 24.5,4.5 24.5,31.3 v 48.2 c 0,26.7 -3.4,31.6 -24.5,31.6 v 7.2 h 75 v -7.2 c -21.1,0 -24.5,-4.9 -24.5,-31.6 v -13.6 h 6.4 l 41.8,52.3 h 109.6 c 53.9,0 77.2,-28.6 77.2,-62.9 -0.1,-34.4 -23.5,-62.6 -77.3,-62.6 z m -157.8,61.4 v -50.1 h 15.4 c 16.9,0 24.5,11.7 24.5,25.2 0,13.2 -7.5,24.9 -24.5,24.9 z m 158.9,52.3 h -2.6 c -13.6,0 -15.4,-3.4 -15.4,-20.7 v -81.7 c 0,0 16.6,0 18.1,0 39.2,0 46.3,28.6 46.3,50.8 -0.1,23 -7.2,51.6 -46.4,51.6 z"
           id="path61"
           inkscape:connector-curvature="0"
           style="fill:#32373c" /><path
           class="st1"
           d="m -1703.6,-1029.4 26,-76.8 c 7.5,-22.2 4.1,-28.6 -20,-28.6 v -7.5 h 70.8 v 7.5 c -23.7,0 -29.4,5.6 -38.8,33.1 l -42.9,128.8 h -4.9 l -38.4,-117.9 -39.2,117.9 h -4.9 l -41.8,-128.8 c -9,-27.5 -15.1,-33.1 -36.9,-33.1 v -7.5 h 83.6 v 7.5 c -22.2,0 -28.3,5.3 -20.3,28.6 l 25.2,76.8 38,-113 h 7.2 z"
           id="path63"
           inkscape:connector-curvature="0"
           style="fill:#32373c" /><path
           class="st1"
           d="m -1575.5,-974.4 c -41.4,0 -75.3,-30.5 -75.3,-67.8 0,-36.9 33.9,-67.4 75.3,-67.4 41.4,0 75.3,30.5 75.3,67.4 0,37.3 -33.9,67.8 -75.3,67.8 z m 0,-123.5 c -34.6,0 -46.7,31.3 -46.7,55.7 0,24.9 12.1,55.7 46.7,55.7 35,0 47.1,-30.9 47.1,-55.7 0,-24.5 -12.1,-55.7 -47.1,-55.7 z"
           id="path65"
           inkscape:connector-curvature="0"
           style="fill:#32373c" /><path
           class="st1"
           d="m -1115.3,-986.8 v 7.5 h -86.2 v -7.5 c 25.2,0 29.8,-6.4 29.8,-44.1 v -60.3 c 0,-37.7 -4.5,-43.7 -29.8,-43.7 v -7.5 h 78 c 38.8,0 60.3,20 60.3,46.7 0,26 -21.5,46.3 -60.3,46.3 h -21.5 v 18.5 c 0,37.7 4.5,44.1 29.7,44.1 z m -8.3,-142 h -21.5 v 65.5 h 21.5 c 21.1,0 30.9,-14.7 30.9,-32.4 0,-18 -9.8,-33.1 -30.9,-33.1 z"
           id="path67"
           inkscape:connector-curvature="0"
           style="fill:#32373c" /><path
           class="st1"
           d="m -804.6,-1014.7 -1.9,6.8 c -3.4,12.4 -7.5,16.9 -34.3,16.9 h -5.3 c -19.6,0 -23,-4.5 -23,-31.3 v -17.3 c 29.4,0 31.6,2.6 31.6,22.2 h 7.2 v -56.1 h -7.2 c 0,19.6 -2.3,22.2 -31.6,22.2 v -42.2 h 20.7 c 26.7,0 30.9,4.5 34.3,16.9 l 1.9,7.2 h 6 l -2.6,-35.4 h -110.7 v 7.2 c 21.1,0 24.5,4.5 24.5,31.3 v 48.2 c 0,24.5 -2.9,30.6 -19.5,31.5 -15.8,-2.4 -26.7,-11 -41.5,-27.4 l -17.3,-18.8 c 23.4,-4.1 35.8,-18.8 35.8,-35.4 0,-20.7 -17.7,-36.5 -50.8,-36.5 h -66.3 v 7.2 c 21.1,0 24.5,4.5 24.5,31.3 v 48.2 c 0,26.7 -3.4,31.6 -24.5,31.6 v 7.2 h 75 v -7.2 c -21.1,0 -24.5,-4.9 -24.5,-31.6 v -13.6 h 6.4 l 41.8,52.3 h 154.8 l 2.3,-35.4 z m -199.6,-28.6 v -50.1 h 15.4 c 16.9,0 24.5,11.7 24.5,25.2 0,13.2 -7.5,24.9 -24.5,24.9 z"
           id="path69"
           inkscape:connector-curvature="0"
           style="fill:#32373c" /><path
           class="st1"
           d="m -728.1,-974.4 c -15.1,0 -28.3,-7.9 -33.9,-12.8 -1.9,1.9 -5.3,7.5 -6,12.8 h -7.2 v -52 h 7.5 c 3,24.9 20.3,39.5 42.6,39.5 12.1,0 21.8,-6.8 21.8,-18.1 0,-9.8 -8.7,-17.3 -24.1,-24.5 l -21.5,-10.2 c -15.1,-7.2 -26.4,-19.6 -26.4,-36.2 0,-18.1 16.9,-33.5 40.3,-33.5 12.4,0 23,4.5 29.4,9.8 1.9,-1.5 3.8,-5.7 4.9,-10.2 h 7.2 v 44.4 h -7.9 c -2.6,-17.7 -12.4,-32.4 -32.4,-32.4 -10.5,0 -20.3,6 -20.3,15.4 0,9.8 7.9,15.1 26,23.3 l 20.7,10.2 c 18.1,8.7 25.2,22.6 25.2,33.9 0,24 -20.7,40.6 -45.9,40.6 z"
           id="path71"
           inkscape:connector-curvature="0"
           style="fill:#32373c" /><path
           class="st1"
           d="m -614.2,-974.4 c -15.1,0 -28.3,-7.9 -33.9,-12.8 -1.9,1.9 -5.3,7.5 -6,12.8 h -7.2 v -52 h 7.5 c 3,24.9 20.3,39.5 42.6,39.5 12.1,0 21.8,-6.8 21.8,-18.1 0,-9.8 -8.7,-17.3 -24.1,-24.5 l -21.5,-10.2 c -15.1,-7.2 -26.4,-19.6 -26.4,-36.2 0,-18.1 16.9,-33.5 40.3,-33.5 12.4,0 23,4.5 29.4,9.8 1.9,-1.5 3.8,-5.7 4.9,-10.2 h 7.2 v 44.4 h -7.9 c -2.6,-17.7 -12.4,-32.4 -32.4,-32.4 -10.5,0 -20.3,6 -20.3,15.4 0,9.8 7.9,15.1 26,23.3 l 20.7,10.2 c 18.1,8.7 25.2,22.6 25.2,33.9 0,24 -20.7,40.6 -45.9,40.6 z"
           id="path73"
           inkscape:connector-curvature="0"
           style="fill:#32373c" /></g><g
         id="W_Mark"><path
           class="st1"
           d="m -2061,-1220.3 c 21.5,0 42.4,4.2 62,12.5 9.4,4 18.5,8.9 27.1,14.7 8.4,5.7 16.4,12.2 23.6,19.5 7.2,7.2 13.8,15.1 19.5,23.6 5.8,8.5 10.7,17.6 14.7,27.1 8.3,19.6 12.5,40.5 12.5,62 0,21.5 -4.2,42.4 -12.5,62 -4,9.4 -8.9,18.5 -14.7,27.1 -5.7,8.4 -12.2,16.4 -19.5,23.6 -7.2,7.2 -15.1,13.8 -23.6,19.5 -8.5,5.8 -17.6,10.7 -27.1,14.7 -19.6,8.3 -40.5,12.5 -62,12.5 -21.5,0 -42.4,-4.2 -62,-12.5 -9.4,-4 -18.5,-8.9 -27.1,-14.7 -8.4,-5.7 -16.4,-12.2 -23.6,-19.5 -7.2,-7.2 -13.8,-15.1 -19.5,-23.6 -5.8,-8.5 -10.7,-17.6 -14.7,-27.1 -8.3,-19.6 -12.5,-40.5 -12.5,-62 0,-21.5 4.2,-42.4 12.5,-62 4,-9.4 8.9,-18.5 14.7,-27.1 5.7,-8.4 12.2,-16.4 19.5,-23.6 7.2,-7.2 15.1,-13.8 23.6,-19.5 8.5,-5.8 17.6,-10.7 27.1,-14.7 19.6,-8.3 40.5,-12.5 62,-12.5 m 0,-10.2 c -93.6,0 -169.5,75.9 -169.5,169.5 0,93.6 75.9,169.5 169.5,169.5 93.6,0 169.5,-75.9 169.5,-169.5 0,-93.6 -75.9,-169.5 -169.5,-169.5 z"
           id="path76"
           inkscape:connector-curvature="0"
           style="fill:#32373c" /><path
           class="st1"
           d="m -2202.3,-1061 c 0,55.9 32.5,104.2 79.6,127.1 l -67.4,-184.6 c -7.8,17.6 -12.2,37 -12.2,57.5 z m 236.6,-7.1 c 0,-17.5 -6.3,-29.5 -11.6,-39 -7.2,-11.6 -13.9,-21.5 -13.9,-33.1 0,-13 9.8,-25.1 23.7,-25.1 0.6,0 1.2,0.1 1.8,0.1 -25.1,-23 -58.6,-37.1 -95.4,-37.1 -49.3,0 -92.8,25.3 -118,63.7 3.3,0.1 6.4,0.2 9.1,0.2 14.8,0 37.6,-1.8 37.6,-1.8 7.6,-0.4 8.5,10.7 0.9,11.6 0,0 -7.7,0.9 -16.2,1.3 l 51.4,153 30.9,-92.7 -22,-60.3 c -7.6,-0.4 -14.8,-1.3 -14.8,-1.3 -7.6,-0.4 -6.7,-12.1 0.9,-11.6 0,0 23.3,1.8 37.2,1.8 14.8,0 37.6,-1.8 37.6,-1.8 7.6,-0.4 8.5,10.7 0.9,11.6 0,0 -7.7,0.9 -16.2,1.3 l 51,151.8 14.6,-46.2 c 6.7,-20.1 10.5,-34.4 10.5,-46.4 z m -92.8,19.4 -42.4,123.1 c 12.7,3.7 26,5.8 39.9,5.8 16.4,0 32.2,-2.8 46.9,-8 -0.4,-0.6 -0.7,-1.2 -1,-1.9 z m 121.4,-80.1 c 0.6,4.5 0.9,9.3 0.9,14.5 0,14.3 -2.7,30.4 -10.7,50.6 L -1990,-939 c 42,-24.5 70.2,-70 70.2,-122.1 0,-24.5 -6.2,-47.6 -17.3,-67.7 z"
           id="path78"
           inkscape:connector-curvature="0"
           style="fill:#32373c" /></g></g></g></svg>